<svg aria-roledescription="er" role="graphics-document document" viewBox="0 0 956.513671875 430" style="max-width: 956.514px; background-color: white;" xmlns:xlink="http://www.w3.org/1999/xlink" xmlns="http://www.w3.org/2000/svg" width="100%" id="mermaid-0"><style>#mermaid-0{font-family:"trebuchet ms",verdana,arial,sans-serif;font-size:16px;fill:#000000;}#mermaid-0 .error-icon{fill:#552222;}#mermaid-0 .error-text{fill:#552222;stroke:#552222;}#mermaid-0 .edge-thickness-normal{stroke-width:2px;}#mermaid-0 .edge-thickness-thick{stroke-width:3.5px;}#mermaid-0 .edge-pattern-solid{stroke-dasharray:0;}#mermaid-0 .edge-pattern-dashed{stroke-dasharray:3;}#mermaid-0 .edge-pattern-dotted{stroke-dasharray:2;}#mermaid-0 .marker{fill:#000000;stroke:#000000;}#mermaid-0 .marker.cross{stroke:#000000;}#mermaid-0 svg{font-family:"trebuchet ms",verdana,arial,sans-serif;font-size:16px;}#mermaid-0 .entityBox{fill:#cde498;stroke:#13540c;}#mermaid-0 .attributeBoxOdd{fill:#ffffff;stroke:#13540c;}#mermaid-0 .attributeBoxEven{fill:#f2f2f2;stroke:#13540c;}#mermaid-0 .relationshipLabelBox{fill:hsl(78.1578947368, 58.4615384615%, 84.5098039216%);opacity:0.7;background-color:hsl(78.1578947368, 58.4615384615%, 84.5098039216%);}#mermaid-0 .relationshipLabelBox rect{opacity:0.5;}#mermaid-0 .relationshipLine{stroke:#000000;}#mermaid-0 .entityTitleText{text-anchor:middle;font-size:18px;fill:#000000;}#mermaid-0 :root{--mermaid-font-family:"trebuchet ms",verdana,arial,sans-serif;}</style><g/><defs><marker orient="auto" markerHeight="18" markerWidth="18" refY="9" refX="0" id="ONLY_ONE_START"><path d="M9,0 L9,18 M15,0 L15,18" fill="none" stroke="gray"/></marker></defs><defs><marker orient="auto" markerHeight="18" markerWidth="18" refY="9" refX="18" id="ONLY_ONE_END"><path d="M3,0 L3,18 M9,0 L9,18" fill="none" stroke="gray"/></marker></defs><defs><marker orient="auto" markerHeight="18" markerWidth="30" refY="9" refX="0" id="ZERO_OR_ONE_START"><circle r="6" cy="9" cx="21" fill="white" stroke="gray"/><path d="M9,0 L9,18" fill="none" stroke="gray"/></marker></defs><defs><marker orient="auto" markerHeight="18" markerWidth="30" refY="9" refX="30" id="ZERO_OR_ONE_END"><circle r="6" cy="9" cx="9" fill="white" stroke="gray"/><path d="M21,0 L21,18" fill="none" stroke="gray"/></marker></defs><defs><marker orient="auto" markerHeight="36" markerWidth="45" refY="18" refX="18" id="ONE_OR_MORE_START"><path d="M0,18 Q 18,0 36,18 Q 18,36 0,18 M42,9 L42,27" fill="none" stroke="gray"/></marker></defs><defs><marker orient="auto" markerHeight="36" markerWidth="45" refY="18" refX="27" id="ONE_OR_MORE_END"><path d="M3,9 L3,27 M9,18 Q27,0 45,18 Q27,36 9,18" fill="none" stroke="gray"/></marker></defs><defs><marker orient="auto" markerHeight="36" markerWidth="57" refY="18" refX="18" id="ZERO_OR_MORE_START"><circle r="6" cy="18" cx="48" fill="white" stroke="gray"/><path d="M0,18 Q18,0 36,18 Q18,36 0,18" fill="none" stroke="gray"/></marker></defs><defs><marker orient="auto" markerHeight="36" markerWidth="57" refY="18" refX="39" id="ZERO_OR_MORE_END"><circle r="6" cy="18" cx="9" fill="white" stroke="gray"/><path d="M21,18 Q39,0 57,18 Q39,36 21,18" fill="none" stroke="gray"/></marker></defs><path style="stroke: gray; fill: none;" marker-start="url(#ZERO_OR_MORE_START)" marker-end="url(#ZERO_OR_ONE_END)" d="M192.5390625,147.575L172.11588541666666,160.64583333333334C151.69270833333334,173.71666666666667,110.84635416666667,199.85833333333335,90.42317708333333,226.76250000000002C70,253.66666666666666,70,281.3333333333333,70,295.1666666666667L70,309" class="er relationshipLine"/><path style="stroke: gray; fill: none;" marker-start="url(#ZERO_OR_MORE_START)" marker-end="url(#ONLY_ONE_END)" d="M270,176L270,184.33333333333334C270,192.66666666666666,270,209.33333333333334,270,227.83333333333334C270,246.33333333333334,270,266.6666666666667,270,276.8333333333333L270,287" class="er relationshipLine"/><path style="stroke: gray; fill: none;" marker-start="url(#ZERO_OR_MORE_START)" marker-end="url(#ZERO_OR_ONE_END)" d="M347.4609375,155.80156217976452L363.1399739583333,167.50130181647043C378.8190104166667,179.20104145317634,410.1770833333333,202.60052072658814,431.94795005341877,222.6335936966274C453.7188167735042,242.66666666666666,465.90247729700855,259.3333333333333,471.9943075587607,267.6666666666667L478.0861378205128,276" class="er relationshipLine"/><path style="stroke: gray; fill: none;" marker-start="url(#ZERO_OR_MORE_START)" marker-end="url(#ZERO_OR_ONE_END)" d="M577.064453125,176L577.064453125,184.33333333333334C577.064453125,192.66666666666666,577.064453125,209.33333333333334,573.5031995637464,226C569.9419460024928,242.66666666666666,562.8194388799858,259.3333333333333,559.2581853187322,267.6666666666667L555.6969317574786,276" class="er relationshipLine"/><g transform="translate(192.5390625,20 )" id="entity-Vessel-4df51686-6cea-564a-ab70-0ca246d13ff3"><rect height="156" width="154.921875" y="0" x="0" class="er entityBox"/><text style="dominant-baseline: middle; text-anchor: middle; font-size: 12px;" transform="translate(77.4609375,12)" y="0" x="0" id="text-entity-Vessel-4df51686-6cea-564a-ab70-0ca246d13ff3" class="er entityLabel">Vessel</text><rect height="22" width="36.5234375" y="24" x="0" class="er attributeBoxOdd"/><text style="dominant-baseline: middle; font-size: 10.2px;" transform="translate(5,35)" y="0" x="0" id="text-entity-Vessel-4df51686-6cea-564a-ab70-0ca246d13ff3-attr-1-type" class="er entityLabel">Int</text><rect height="22" width="50.0546875" y="24" x="36.5234375" class="er attributeBoxOdd"/><text style="dominant-baseline: middle; font-size: 10.2px;" transform="translate(41.5234375,35)" y="0" x="0" id="text-entity-Vessel-4df51686-6cea-564a-ab70-0ca246d13ff3-attr-1-name" class="er entityLabel">id</text><rect height="22" width="21.5625" y="24" x="86.578125" class="er attributeBoxOdd"/><text style="dominant-baseline: middle; font-size: 10.2px;" transform="translate(91.578125,35)" y="0" x="0" id="text-entity-Vessel-4df51686-6cea-564a-ab70-0ca246d13ff3-attr-1-key" class="er entityLabel">PK</text><rect height="22" width="46.78125" y="24" x="108.140625" class="er attributeBoxOdd"/><text style="dominant-baseline: middle; font-size: 10.2px;" transform="translate(113.140625,35)" y="0" x="0" id="text-entity-Vessel-4df51686-6cea-564a-ab70-0ca246d13ff3-attr-1-comment" class="er entityLabel"/><rect height="22" width="36.5234375" y="46" x="0" class="er attributeBoxEven"/><text style="dominant-baseline: middle; font-size: 10.2px;" transform="translate(5,57)" y="0" x="0" id="text-entity-Vessel-4df51686-6cea-564a-ab70-0ca246d13ff3-attr-2-type" class="er entityLabel">String</text><rect height="22" width="50.0546875" y="46" x="36.5234375" class="er attributeBoxEven"/><text style="dominant-baseline: middle; font-size: 10.2px;" transform="translate(41.5234375,57)" y="0" x="0" id="text-entity-Vessel-4df51686-6cea-564a-ab70-0ca246d13ff3-attr-2-name" class="er entityLabel">name</text><rect height="22" width="21.5625" y="46" x="86.578125" class="er attributeBoxEven"/><text style="dominant-baseline: middle; font-size: 10.2px;" transform="translate(91.578125,57)" y="0" x="0" id="text-entity-Vessel-4df51686-6cea-564a-ab70-0ca246d13ff3-attr-2-key" class="er entityLabel"/><rect height="22" width="46.78125" y="46" x="108.140625" class="er attributeBoxEven"/><text style="dominant-baseline: middle; font-size: 10.2px;" transform="translate(113.140625,57)" y="0" x="0" id="text-entity-Vessel-4df51686-6cea-564a-ab70-0ca246d13ff3-attr-2-comment" class="er entityLabel"/><rect height="22" width="36.5234375" y="68" x="0" class="er attributeBoxOdd"/><text style="dominant-baseline: middle; font-size: 10.2px;" transform="translate(5,79)" y="0" x="0" id="text-entity-Vessel-4df51686-6cea-564a-ab70-0ca246d13ff3-attr-3-type" class="er entityLabel">Int</text><rect height="22" width="50.0546875" y="68" x="36.5234375" class="er attributeBoxOdd"/><text style="dominant-baseline: middle; font-size: 10.2px;" transform="translate(41.5234375,79)" y="0" x="0" id="text-entity-Vessel-4df51686-6cea-564a-ab70-0ca246d13ff3-attr-3-name" class="er entityLabel">rs</text><rect height="22" width="21.5625" y="68" x="86.578125" class="er attributeBoxOdd"/><text style="dominant-baseline: middle; font-size: 10.2px;" transform="translate(91.578125,79)" y="0" x="0" id="text-entity-Vessel-4df51686-6cea-564a-ab70-0ca246d13ff3-attr-3-key" class="er entityLabel"/><rect height="22" width="46.78125" y="68" x="108.140625" class="er attributeBoxOdd"/><text style="dominant-baseline: middle; font-size: 10.2px;" transform="translate(113.140625,79)" y="0" x="0" id="text-entity-Vessel-4df51686-6cea-564a-ab70-0ca246d13ff3-attr-3-comment" class="er entityLabel"/><rect height="22" width="36.5234375" y="90" x="0" class="er attributeBoxEven"/><text style="dominant-baseline: middle; font-size: 10.2px;" transform="translate(5,101)" y="0" x="0" id="text-entity-Vessel-4df51686-6cea-564a-ab70-0ca246d13ff3-attr-4-type" class="er entityLabel">Int</text><rect height="22" width="50.0546875" y="90" x="36.5234375" class="er attributeBoxEven"/><text style="dominant-baseline: middle; font-size: 10.2px;" transform="translate(41.5234375,101)" y="0" x="0" id="text-entity-Vessel-4df51686-6cea-564a-ab70-0ca246d13ff3-attr-4-name" class="er entityLabel">stationId</text><rect height="22" width="21.5625" y="90" x="86.578125" class="er attributeBoxEven"/><text style="dominant-baseline: middle; font-size: 10.2px;" transform="translate(91.578125,101)" y="0" x="0" id="text-entity-Vessel-4df51686-6cea-564a-ab70-0ca246d13ff3-attr-4-key" class="er entityLabel"/><rect height="22" width="46.78125" y="90" x="108.140625" class="er attributeBoxEven"/><text style="dominant-baseline: middle; font-size: 10.2px;" transform="translate(113.140625,101)" y="0" x="0" id="text-entity-Vessel-4df51686-6cea-564a-ab70-0ca246d13ff3-attr-4-comment" class="er entityLabel">nullable</text><rect height="22" width="36.5234375" y="112" x="0" class="er attributeBoxOdd"/><text style="dominant-baseline: middle; font-size: 10.2px;" transform="translate(5,123)" y="0" x="0" id="text-entity-Vessel-4df51686-6cea-564a-ab70-0ca246d13ff3-attr-5-type" class="er entityLabel">Int</text><rect height="22" width="50.0546875" y="112" x="36.5234375" class="er attributeBoxOdd"/><text style="dominant-baseline: middle; font-size: 10.2px;" transform="translate(41.5234375,123)" y="0" x="0" id="text-entity-Vessel-4df51686-6cea-564a-ab70-0ca246d13ff3-attr-5-name" class="er entityLabel">classId</text><rect height="22" width="21.5625" y="112" x="86.578125" class="er attributeBoxOdd"/><text style="dominant-baseline: middle; font-size: 10.2px;" transform="translate(91.578125,123)" y="0" x="0" id="text-entity-Vessel-4df51686-6cea-564a-ab70-0ca246d13ff3-attr-5-key" class="er entityLabel"/><rect height="22" width="46.78125" y="112" x="108.140625" class="er attributeBoxOdd"/><text style="dominant-baseline: middle; font-size: 10.2px;" transform="translate(113.140625,123)" y="0" x="0" id="text-entity-Vessel-4df51686-6cea-564a-ab70-0ca246d13ff3-attr-5-comment" class="er entityLabel"/><rect height="22" width="36.5234375" y="134" x="0" class="er attributeBoxEven"/><text style="dominant-baseline: middle; font-size: 10.2px;" transform="translate(5,145)" y="0" x="0" id="text-entity-Vessel-4df51686-6cea-564a-ab70-0ca246d13ff3-attr-6-type" class="er entityLabel">Int</text><rect height="22" width="50.0546875" y="134" x="36.5234375" class="er attributeBoxEven"/><text style="dominant-baseline: middle; font-size: 10.2px;" transform="translate(41.5234375,145)" y="0" x="0" id="text-entity-Vessel-4df51686-6cea-564a-ab70-0ca246d13ff3-attr-6-name" class="er entityLabel">stateId</text><rect height="22" width="21.5625" y="134" x="86.578125" class="er attributeBoxEven"/><text style="dominant-baseline: middle; font-size: 10.2px;" transform="translate(91.578125,145)" y="0" x="0" id="text-entity-Vessel-4df51686-6cea-564a-ab70-0ca246d13ff3-attr-6-key" class="er entityLabel"/><rect height="22" width="46.78125" y="134" x="108.140625" class="er attributeBoxEven"/><text style="dominant-baseline: middle; font-size: 10.2px;" transform="translate(113.140625,145)" y="0" x="0" id="text-entity-Vessel-4df51686-6cea-564a-ab70-0ca246d13ff3-attr-6-comment" class="er entityLabel">nullable</text></g><g transform="translate(433.994140625,276 )" id="entity-VesselState-aff3f045-747d-52ae-9400-6c766c87f8f8"><rect height="134" width="186.140625" y="0" x="0" class="er entityBox"/><text style="dominant-baseline: middle; text-anchor: middle; font-size: 12px;" transform="translate(93.0703125,12)" y="0" x="0" id="text-entity-VesselState-aff3f045-747d-52ae-9400-6c766c87f8f8" class="er entityLabel">VesselState</text><rect height="22" width="46.2265625" y="24" x="0" class="er attributeBoxOdd"/><text style="dominant-baseline: middle; font-size: 10.2px;" transform="translate(5,35)" y="0" x="0" id="text-entity-VesselState-aff3f045-747d-52ae-9400-6c766c87f8f8-attr-1-type" class="er entityLabel">Int</text><rect height="22" width="71.5703125" y="24" x="46.2265625" class="er attributeBoxOdd"/><text style="dominant-baseline: middle; font-size: 10.2px;" transform="translate(51.2265625,35)" y="0" x="0" id="text-entity-VesselState-aff3f045-747d-52ae-9400-6c766c87f8f8-attr-1-name" class="er entityLabel">id</text><rect height="22" width="21.5625" y="24" x="117.796875" class="er attributeBoxOdd"/><text style="dominant-baseline: middle; font-size: 10.2px;" transform="translate(122.796875,35)" y="0" x="0" id="text-entity-VesselState-aff3f045-747d-52ae-9400-6c766c87f8f8-attr-1-key" class="er entityLabel">PK</text><rect height="22" width="46.78125" y="24" x="139.359375" class="er attributeBoxOdd"/><text style="dominant-baseline: middle; font-size: 10.2px;" transform="translate(144.359375,35)" y="0" x="0" id="text-entity-VesselState-aff3f045-747d-52ae-9400-6c766c87f8f8-attr-1-comment" class="er entityLabel"/><rect height="22" width="46.2265625" y="46" x="0" class="er attributeBoxEven"/><text style="dominant-baseline: middle; font-size: 10.2px;" transform="translate(5,57)" y="0" x="0" id="text-entity-VesselState-aff3f045-747d-52ae-9400-6c766c87f8f8-attr-2-type" class="er entityLabel">String</text><rect height="22" width="71.5703125" y="46" x="46.2265625" class="er attributeBoxEven"/><text style="dominant-baseline: middle; font-size: 10.2px;" transform="translate(51.2265625,57)" y="0" x="0" id="text-entity-VesselState-aff3f045-747d-52ae-9400-6c766c87f8f8-attr-2-name" class="er entityLabel">name</text><rect height="22" width="21.5625" y="46" x="117.796875" class="er attributeBoxEven"/><text style="dominant-baseline: middle; font-size: 10.2px;" transform="translate(122.796875,57)" y="0" x="0" id="text-entity-VesselState-aff3f045-747d-52ae-9400-6c766c87f8f8-attr-2-key" class="er entityLabel"/><rect height="22" width="46.78125" y="46" x="139.359375" class="er attributeBoxEven"/><text style="dominant-baseline: middle; font-size: 10.2px;" transform="translate(144.359375,57)" y="0" x="0" id="text-entity-VesselState-aff3f045-747d-52ae-9400-6c766c87f8f8-attr-2-comment" class="er entityLabel"/><rect height="22" width="46.2265625" y="68" x="0" class="er attributeBoxOdd"/><text style="dominant-baseline: middle; font-size: 10.2px;" transform="translate(5,79)" y="0" x="0" id="text-entity-VesselState-aff3f045-747d-52ae-9400-6c766c87f8f8-attr-3-type" class="er entityLabel">String</text><rect height="22" width="71.5703125" y="68" x="46.2265625" class="er attributeBoxOdd"/><text style="dominant-baseline: middle; font-size: 10.2px;" transform="translate(51.2265625,79)" y="0" x="0" id="text-entity-VesselState-aff3f045-747d-52ae-9400-6c766c87f8f8-attr-3-name" class="er entityLabel">description</text><rect height="22" width="21.5625" y="68" x="117.796875" class="er attributeBoxOdd"/><text style="dominant-baseline: middle; font-size: 10.2px;" transform="translate(122.796875,79)" y="0" x="0" id="text-entity-VesselState-aff3f045-747d-52ae-9400-6c766c87f8f8-attr-3-key" class="er entityLabel"/><rect height="22" width="46.78125" y="68" x="139.359375" class="er attributeBoxOdd"/><text style="dominant-baseline: middle; font-size: 10.2px;" transform="translate(144.359375,79)" y="0" x="0" id="text-entity-VesselState-aff3f045-747d-52ae-9400-6c766c87f8f8-attr-3-comment" class="er entityLabel">nullable</text><rect height="22" width="46.2265625" y="90" x="0" class="er attributeBoxEven"/><text style="dominant-baseline: middle; font-size: 10.2px;" transform="translate(5,101)" y="0" x="0" id="text-entity-VesselState-aff3f045-747d-52ae-9400-6c766c87f8f8-attr-4-type" class="er entityLabel">Int</text><rect height="22" width="71.5703125" y="90" x="46.2265625" class="er attributeBoxEven"/><text style="dominant-baseline: middle; font-size: 10.2px;" transform="translate(51.2265625,101)" y="0" x="0" id="text-entity-VesselState-aff3f045-747d-52ae-9400-6c766c87f8f8-attr-4-name" class="er entityLabel">legacyStateId</text><rect height="22" width="21.5625" y="90" x="117.796875" class="er attributeBoxEven"/><text style="dominant-baseline: middle; font-size: 10.2px;" transform="translate(122.796875,101)" y="0" x="0" id="text-entity-VesselState-aff3f045-747d-52ae-9400-6c766c87f8f8-attr-4-key" class="er entityLabel"/><rect height="22" width="46.78125" y="90" x="139.359375" class="er attributeBoxEven"/><text style="dominant-baseline: middle; font-size: 10.2px;" transform="translate(144.359375,101)" y="0" x="0" id="text-entity-VesselState-aff3f045-747d-52ae-9400-6c766c87f8f8-attr-4-comment" class="er entityLabel">nullable</text><rect height="22" width="46.2265625" y="112" x="0" class="er attributeBoxOdd"/><text style="dominant-baseline: middle; font-size: 10.2px;" transform="translate(5,123)" y="0" x="0" id="text-entity-VesselState-aff3f045-747d-52ae-9400-6c766c87f8f8-attr-5-type" class="er entityLabel">Boolean</text><rect height="22" width="71.5703125" y="112" x="46.2265625" class="er attributeBoxOdd"/><text style="dominant-baseline: middle; font-size: 10.2px;" transform="translate(51.2265625,123)" y="0" x="0" id="text-entity-VesselState-aff3f045-747d-52ae-9400-6c766c87f8f8-attr-5-name" class="er entityLabel">inUse</text><rect height="22" width="21.5625" y="112" x="117.796875" class="er attributeBoxOdd"/><text style="dominant-baseline: middle; font-size: 10.2px;" transform="translate(122.796875,123)" y="0" x="0" id="text-entity-VesselState-aff3f045-747d-52ae-9400-6c766c87f8f8-attr-5-key" class="er entityLabel"/><rect height="22" width="46.78125" y="112" x="139.359375" class="er attributeBoxOdd"/><text style="dominant-baseline: middle; font-size: 10.2px;" transform="translate(144.359375,123)" y="0" x="0" id="text-entity-VesselState-aff3f045-747d-52ae-9400-6c766c87f8f8-attr-5-comment" class="er entityLabel"/></g><g transform="translate(483.466796875,20 )" id="entity-VesselSubState-99ac5627-d7d0-514f-bef1-33261dafe516"><rect height="156" width="187.1953125" y="0" x="0" class="er entityBox"/><text style="dominant-baseline: middle; text-anchor: middle; font-size: 12px;" transform="translate(93.59765625,12)" y="0" x="0" id="text-entity-VesselSubState-99ac5627-d7d0-514f-bef1-33261dafe516" class="er entityLabel">VesselSubState</text><rect height="22" width="46.2265625" y="24" x="0" class="er attributeBoxOdd"/><text style="dominant-baseline: middle; font-size: 10.2px;" transform="translate(5,35)" y="0" x="0" id="text-entity-VesselSubState-99ac5627-d7d0-514f-bef1-33261dafe516-attr-1-type" class="er entityLabel">Int</text><rect height="22" width="72.625" y="24" x="46.2265625" class="er attributeBoxOdd"/><text style="dominant-baseline: middle; font-size: 10.2px;" transform="translate(51.2265625,35)" y="0" x="0" id="text-entity-VesselSubState-99ac5627-d7d0-514f-bef1-33261dafe516-attr-1-name" class="er entityLabel">id</text><rect height="22" width="21.5625" y="24" x="118.8515625" class="er attributeBoxOdd"/><text style="dominant-baseline: middle; font-size: 10.2px;" transform="translate(123.8515625,35)" y="0" x="0" id="text-entity-VesselSubState-99ac5627-d7d0-514f-bef1-33261dafe516-attr-1-key" class="er entityLabel">PK</text><rect height="22" width="46.78125" y="24" x="140.4140625" class="er attributeBoxOdd"/><text style="dominant-baseline: middle; font-size: 10.2px;" transform="translate(145.4140625,35)" y="0" x="0" id="text-entity-VesselSubState-99ac5627-d7d0-514f-bef1-33261dafe516-attr-1-comment" class="er entityLabel"/><rect height="22" width="46.2265625" y="46" x="0" class="er attributeBoxEven"/><text style="dominant-baseline: middle; font-size: 10.2px;" transform="translate(5,57)" y="0" x="0" id="text-entity-VesselSubState-99ac5627-d7d0-514f-bef1-33261dafe516-attr-2-type" class="er entityLabel">String</text><rect height="22" width="72.625" y="46" x="46.2265625" class="er attributeBoxEven"/><text style="dominant-baseline: middle; font-size: 10.2px;" transform="translate(51.2265625,57)" y="0" x="0" id="text-entity-VesselSubState-99ac5627-d7d0-514f-bef1-33261dafe516-attr-2-name" class="er entityLabel">name</text><rect height="22" width="21.5625" y="46" x="118.8515625" class="er attributeBoxEven"/><text style="dominant-baseline: middle; font-size: 10.2px;" transform="translate(123.8515625,57)" y="0" x="0" id="text-entity-VesselSubState-99ac5627-d7d0-514f-bef1-33261dafe516-attr-2-key" class="er entityLabel"/><rect height="22" width="46.78125" y="46" x="140.4140625" class="er attributeBoxEven"/><text style="dominant-baseline: middle; font-size: 10.2px;" transform="translate(145.4140625,57)" y="0" x="0" id="text-entity-VesselSubState-99ac5627-d7d0-514f-bef1-33261dafe516-attr-2-comment" class="er entityLabel"/><rect height="22" width="46.2265625" y="68" x="0" class="er attributeBoxOdd"/><text style="dominant-baseline: middle; font-size: 10.2px;" transform="translate(5,79)" y="0" x="0" id="text-entity-VesselSubState-99ac5627-d7d0-514f-bef1-33261dafe516-attr-3-type" class="er entityLabel">String</text><rect height="22" width="72.625" y="68" x="46.2265625" class="er attributeBoxOdd"/><text style="dominant-baseline: middle; font-size: 10.2px;" transform="translate(51.2265625,79)" y="0" x="0" id="text-entity-VesselSubState-99ac5627-d7d0-514f-bef1-33261dafe516-attr-3-name" class="er entityLabel">description</text><rect height="22" width="21.5625" y="68" x="118.8515625" class="er attributeBoxOdd"/><text style="dominant-baseline: middle; font-size: 10.2px;" transform="translate(123.8515625,79)" y="0" x="0" id="text-entity-VesselSubState-99ac5627-d7d0-514f-bef1-33261dafe516-attr-3-key" class="er entityLabel"/><rect height="22" width="46.78125" y="68" x="140.4140625" class="er attributeBoxOdd"/><text style="dominant-baseline: middle; font-size: 10.2px;" transform="translate(145.4140625,79)" y="0" x="0" id="text-entity-VesselSubState-99ac5627-d7d0-514f-bef1-33261dafe516-attr-3-comment" class="er entityLabel">nullable</text><rect height="22" width="46.2265625" y="90" x="0" class="er attributeBoxEven"/><text style="dominant-baseline: middle; font-size: 10.2px;" transform="translate(5,101)" y="0" x="0" id="text-entity-VesselSubState-99ac5627-d7d0-514f-bef1-33261dafe516-attr-4-type" class="er entityLabel">Int</text><rect height="22" width="72.625" y="90" x="46.2265625" class="er attributeBoxEven"/><text style="dominant-baseline: middle; font-size: 10.2px;" transform="translate(51.2265625,101)" y="0" x="0" id="text-entity-VesselSubState-99ac5627-d7d0-514f-bef1-33261dafe516-attr-4-name" class="er entityLabel">legacyStateId</text><rect height="22" width="21.5625" y="90" x="118.8515625" class="er attributeBoxEven"/><text style="dominant-baseline: middle; font-size: 10.2px;" transform="translate(123.8515625,101)" y="0" x="0" id="text-entity-VesselSubState-99ac5627-d7d0-514f-bef1-33261dafe516-attr-4-key" class="er entityLabel"/><rect height="22" width="46.78125" y="90" x="140.4140625" class="er attributeBoxEven"/><text style="dominant-baseline: middle; font-size: 10.2px;" transform="translate(145.4140625,101)" y="0" x="0" id="text-entity-VesselSubState-99ac5627-d7d0-514f-bef1-33261dafe516-attr-4-comment" class="er entityLabel">nullable</text><rect height="22" width="46.2265625" y="112" x="0" class="er attributeBoxOdd"/><text style="dominant-baseline: middle; font-size: 10.2px;" transform="translate(5,123)" y="0" x="0" id="text-entity-VesselSubState-99ac5627-d7d0-514f-bef1-33261dafe516-attr-5-type" class="er entityLabel">Boolean</text><rect height="22" width="72.625" y="112" x="46.2265625" class="er attributeBoxOdd"/><text style="dominant-baseline: middle; font-size: 10.2px;" transform="translate(51.2265625,123)" y="0" x="0" id="text-entity-VesselSubState-99ac5627-d7d0-514f-bef1-33261dafe516-attr-5-name" class="er entityLabel">inUse</text><rect height="22" width="21.5625" y="112" x="118.8515625" class="er attributeBoxOdd"/><text style="dominant-baseline: middle; font-size: 10.2px;" transform="translate(123.8515625,123)" y="0" x="0" id="text-entity-VesselSubState-99ac5627-d7d0-514f-bef1-33261dafe516-attr-5-key" class="er entityLabel"/><rect height="22" width="46.78125" y="112" x="140.4140625" class="er attributeBoxOdd"/><text style="dominant-baseline: middle; font-size: 10.2px;" transform="translate(145.4140625,123)" y="0" x="0" id="text-entity-VesselSubState-99ac5627-d7d0-514f-bef1-33261dafe516-attr-5-comment" class="er entityLabel"/><rect height="22" width="46.2265625" y="134" x="0" class="er attributeBoxEven"/><text style="dominant-baseline: middle; font-size: 10.2px;" transform="translate(5,145)" y="0" x="0" id="text-entity-VesselSubState-99ac5627-d7d0-514f-bef1-33261dafe516-attr-6-type" class="er entityLabel">Int</text><rect height="22" width="72.625" y="134" x="46.2265625" class="er attributeBoxEven"/><text style="dominant-baseline: middle; font-size: 10.2px;" transform="translate(51.2265625,145)" y="0" x="0" id="text-entity-VesselSubState-99ac5627-d7d0-514f-bef1-33261dafe516-attr-6-name" class="er entityLabel">parentStateId</text><rect height="22" width="21.5625" y="134" x="118.8515625" class="er attributeBoxEven"/><text style="dominant-baseline: middle; font-size: 10.2px;" transform="translate(123.8515625,145)" y="0" x="0" id="text-entity-VesselSubState-99ac5627-d7d0-514f-bef1-33261dafe516-attr-6-key" class="er entityLabel"/><rect height="22" width="46.78125" y="134" x="140.4140625" class="er attributeBoxEven"/><text style="dominant-baseline: middle; font-size: 10.2px;" transform="translate(145.4140625,145)" y="0" x="0" id="text-entity-VesselSubState-99ac5627-d7d0-514f-bef1-33261dafe516-attr-6-comment" class="er entityLabel">nullable</text></g><g transform="translate(770.662109375,53 )" id="entity-VesselCapability-4edfbac9-376a-5129-ad9c-0adb3994b6fa"><rect height="90" width="165.8515625" y="0" x="0" class="er entityBox"/><text style="dominant-baseline: middle; text-anchor: middle; font-size: 12px;" transform="translate(82.92578125,12)" y="0" x="0" id="text-entity-VesselCapability-4edfbac9-376a-5129-ad9c-0adb3994b6fa" class="er entityLabel">VesselCapability</text><rect height="22" width="36.5234375" y="24" x="0" class="er attributeBoxOdd"/><text style="dominant-baseline: middle; font-size: 10.2px;" transform="translate(5,35)" y="0" x="0" id="text-entity-VesselCapability-4edfbac9-376a-5129-ad9c-0adb3994b6fa-attr-1-type" class="er entityLabel">Int</text><rect height="22" width="60.984375" y="24" x="36.5234375" class="er attributeBoxOdd"/><text style="dominant-baseline: middle; font-size: 10.2px;" transform="translate(41.5234375,35)" y="0" x="0" id="text-entity-VesselCapability-4edfbac9-376a-5129-ad9c-0adb3994b6fa-attr-1-name" class="er entityLabel">id</text><rect height="22" width="21.5625" y="24" x="97.5078125" class="er attributeBoxOdd"/><text style="dominant-baseline: middle; font-size: 10.2px;" transform="translate(102.5078125,35)" y="0" x="0" id="text-entity-VesselCapability-4edfbac9-376a-5129-ad9c-0adb3994b6fa-attr-1-key" class="er entityLabel">PK</text><rect height="22" width="46.78125" y="24" x="119.0703125" class="er attributeBoxOdd"/><text style="dominant-baseline: middle; font-size: 10.2px;" transform="translate(124.0703125,35)" y="0" x="0" id="text-entity-VesselCapability-4edfbac9-376a-5129-ad9c-0adb3994b6fa-attr-1-comment" class="er entityLabel"/><rect height="22" width="36.5234375" y="46" x="0" class="er attributeBoxEven"/><text style="dominant-baseline: middle; font-size: 10.2px;" transform="translate(5,57)" y="0" x="0" id="text-entity-VesselCapability-4edfbac9-376a-5129-ad9c-0adb3994b6fa-attr-2-type" class="er entityLabel">String</text><rect height="22" width="60.984375" y="46" x="36.5234375" class="er attributeBoxEven"/><text style="dominant-baseline: middle; font-size: 10.2px;" transform="translate(41.5234375,57)" y="0" x="0" id="text-entity-VesselCapability-4edfbac9-376a-5129-ad9c-0adb3994b6fa-attr-2-name" class="er entityLabel">name</text><rect height="22" width="21.5625" y="46" x="97.5078125" class="er attributeBoxEven"/><text style="dominant-baseline: middle; font-size: 10.2px;" transform="translate(102.5078125,57)" y="0" x="0" id="text-entity-VesselCapability-4edfbac9-376a-5129-ad9c-0adb3994b6fa-attr-2-key" class="er entityLabel"/><rect height="22" width="46.78125" y="46" x="119.0703125" class="er attributeBoxEven"/><text style="dominant-baseline: middle; font-size: 10.2px;" transform="translate(124.0703125,57)" y="0" x="0" id="text-entity-VesselCapability-4edfbac9-376a-5129-ad9c-0adb3994b6fa-attr-2-comment" class="er entityLabel"/><rect height="22" width="36.5234375" y="68" x="0" class="er attributeBoxOdd"/><text style="dominant-baseline: middle; font-size: 10.2px;" transform="translate(5,79)" y="0" x="0" id="text-entity-VesselCapability-4edfbac9-376a-5129-ad9c-0adb3994b6fa-attr-3-type" class="er entityLabel">String</text><rect height="22" width="60.984375" y="68" x="36.5234375" class="er attributeBoxOdd"/><text style="dominant-baseline: middle; font-size: 10.2px;" transform="translate(41.5234375,79)" y="0" x="0" id="text-entity-VesselCapability-4edfbac9-376a-5129-ad9c-0adb3994b6fa-attr-3-name" class="er entityLabel">description</text><rect height="22" width="21.5625" y="68" x="97.5078125" class="er attributeBoxOdd"/><text style="dominant-baseline: middle; font-size: 10.2px;" transform="translate(102.5078125,79)" y="0" x="0" id="text-entity-VesselCapability-4edfbac9-376a-5129-ad9c-0adb3994b6fa-attr-3-key" class="er entityLabel"/><rect height="22" width="46.78125" y="68" x="119.0703125" class="er attributeBoxOdd"/><text style="dominant-baseline: middle; font-size: 10.2px;" transform="translate(124.0703125,79)" y="0" x="0" id="text-entity-VesselCapability-4edfbac9-376a-5129-ad9c-0adb3994b6fa-attr-3-comment" class="er entityLabel">nullable</text></g><g transform="translate(220,287 )" id="entity-VesselClass-c13b2959-aa9c-5568-998e-7ad050d4b8ec"><rect height="112" width="100" y="0" x="0" class="er entityBox"/><text style="dominant-baseline: middle; text-anchor: middle; font-size: 12px;" transform="translate(50,12)" y="0" x="0" id="text-entity-VesselClass-c13b2959-aa9c-5568-998e-7ad050d4b8ec" class="er entityLabel">VesselClass</text><rect height="22" width="38.286458333333336" y="24" x="0" class="er attributeBoxOdd"/><text style="dominant-baseline: middle; font-size: 10.2px;" transform="translate(5,35)" y="0" x="0" id="text-entity-VesselClass-c13b2959-aa9c-5568-998e-7ad050d4b8ec-attr-1-type" class="er entityLabel">Int</text><rect height="22" width="38.388020833333336" y="24" x="38.286458333333336" class="er attributeBoxOdd"/><text style="dominant-baseline: middle; font-size: 10.2px;" transform="translate(43.286458333333336,35)" y="0" x="0" id="text-entity-VesselClass-c13b2959-aa9c-5568-998e-7ad050d4b8ec-attr-1-name" class="er entityLabel">id</text><rect height="22" width="23.325520833333332" y="24" x="76.67447916666667" class="er attributeBoxOdd"/><text style="dominant-baseline: middle; font-size: 10.2px;" transform="translate(81.67447916666667,35)" y="0" x="0" id="text-entity-VesselClass-c13b2959-aa9c-5568-998e-7ad050d4b8ec-attr-1-key" class="er entityLabel">PK</text><rect height="22" width="38.286458333333336" y="46" x="0" class="er attributeBoxEven"/><text style="dominant-baseline: middle; font-size: 10.2px;" transform="translate(5,57)" y="0" x="0" id="text-entity-VesselClass-c13b2959-aa9c-5568-998e-7ad050d4b8ec-attr-2-type" class="er entityLabel">String</text><rect height="22" width="38.388020833333336" y="46" x="38.286458333333336" class="er attributeBoxEven"/><text style="dominant-baseline: middle; font-size: 10.2px;" transform="translate(43.286458333333336,57)" y="0" x="0" id="text-entity-VesselClass-c13b2959-aa9c-5568-998e-7ad050d4b8ec-attr-2-name" class="er entityLabel">name</text><rect height="22" width="23.325520833333332" y="46" x="76.67447916666667" class="er attributeBoxEven"/><text style="dominant-baseline: middle; font-size: 10.2px;" transform="translate(81.67447916666667,57)" y="0" x="0" id="text-entity-VesselClass-c13b2959-aa9c-5568-998e-7ad050d4b8ec-attr-2-key" class="er entityLabel"/><rect height="22" width="38.286458333333336" y="68" x="0" class="er attributeBoxOdd"/><text style="dominant-baseline: middle; font-size: 10.2px;" transform="translate(5,79)" y="0" x="0" id="text-entity-VesselClass-c13b2959-aa9c-5568-998e-7ad050d4b8ec-attr-3-type" class="er entityLabel">Int</text><rect height="22" width="38.388020833333336" y="68" x="38.286458333333336" class="er attributeBoxOdd"/><text style="dominant-baseline: middle; font-size: 10.2px;" transform="translate(43.286458333333336,79)" y="0" x="0" id="text-entity-VesselClass-c13b2959-aa9c-5568-998e-7ad050d4b8ec-attr-3-name" class="er entityLabel">range</text><rect height="22" width="23.325520833333332" y="68" x="76.67447916666667" class="er attributeBoxOdd"/><text style="dominant-baseline: middle; font-size: 10.2px;" transform="translate(81.67447916666667,79)" y="0" x="0" id="text-entity-VesselClass-c13b2959-aa9c-5568-998e-7ad050d4b8ec-attr-3-key" class="er entityLabel"/><rect height="22" width="38.286458333333336" y="90" x="0" class="er attributeBoxEven"/><text style="dominant-baseline: middle; font-size: 10.2px;" transform="translate(5,101)" y="0" x="0" id="text-entity-VesselClass-c13b2959-aa9c-5568-998e-7ad050d4b8ec-attr-4-type" class="er entityLabel">Int</text><rect height="22" width="38.388020833333336" y="90" x="38.286458333333336" class="er attributeBoxEven"/><text style="dominant-baseline: middle; font-size: 10.2px;" transform="translate(43.286458333333336,101)" y="0" x="0" id="text-entity-VesselClass-c13b2959-aa9c-5568-998e-7ad050d4b8ec-attr-4-name" class="er entityLabel">speed</text><rect height="22" width="23.325520833333332" y="90" x="76.67447916666667" class="er attributeBoxEven"/><text style="dominant-baseline: middle; font-size: 10.2px;" transform="translate(81.67447916666667,101)" y="0" x="0" id="text-entity-VesselClass-c13b2959-aa9c-5568-998e-7ad050d4b8ec-attr-4-key" class="er entityLabel"/></g><g transform="translate(20,309 )" id="entity-Station-3aa3beba-1c5f-5fdf-98dd-b3d780ac3093"><rect height="68" width="100" y="0" x="0" class="er entityBox"/><text style="dominant-baseline: middle; text-anchor: middle; font-size: 12px;" transform="translate(50,12)" y="0" x="0" id="text-entity-Station-3aa3beba-1c5f-5fdf-98dd-b3d780ac3093" class="er entityLabel">Station</text><rect height="22" width="38.838541666666664" y="24" x="0" class="er attributeBoxOdd"/><text style="dominant-baseline: middle; font-size: 10.2px;" transform="translate(5,35)" y="0" x="0" id="text-entity-Station-3aa3beba-1c5f-5fdf-98dd-b3d780ac3093-attr-1-type" class="er entityLabel">Int</text><rect height="22" width="37.283854166666664" y="24" x="38.838541666666664" class="er attributeBoxOdd"/><text style="dominant-baseline: middle; font-size: 10.2px;" transform="translate(43.838541666666664,35)" y="0" x="0" id="text-entity-Station-3aa3beba-1c5f-5fdf-98dd-b3d780ac3093-attr-1-name" class="er entityLabel">id</text><rect height="22" width="23.877604166666668" y="24" x="76.12239583333333" class="er attributeBoxOdd"/><text style="dominant-baseline: middle; font-size: 10.2px;" transform="translate(81.12239583333333,35)" y="0" x="0" id="text-entity-Station-3aa3beba-1c5f-5fdf-98dd-b3d780ac3093-attr-1-key" class="er entityLabel">PK</text><rect height="22" width="38.838541666666664" y="46" x="0" class="er attributeBoxEven"/><text style="dominant-baseline: middle; font-size: 10.2px;" transform="translate(5,57)" y="0" x="0" id="text-entity-Station-3aa3beba-1c5f-5fdf-98dd-b3d780ac3093-attr-2-type" class="er entityLabel">String</text><rect height="22" width="37.283854166666664" y="46" x="38.838541666666664" class="er attributeBoxEven"/><text style="dominant-baseline: middle; font-size: 10.2px;" transform="translate(43.838541666666664,57)" y="0" x="0" id="text-entity-Station-3aa3beba-1c5f-5fdf-98dd-b3d780ac3093-attr-2-name" class="er entityLabel">name</text><rect height="22" width="23.877604166666668" y="46" x="76.12239583333333" class="er attributeBoxEven"/><text style="dominant-baseline: middle; font-size: 10.2px;" transform="translate(81.12239583333333,57)" y="0" x="0" id="text-entity-Station-3aa3beba-1c5f-5fdf-98dd-b3d780ac3093-attr-2-key" class="er entityLabel"/></g><rect height="14" width="37.1015625" y="203.7449951171875" x="86.31759643554688" class="er relationshipLabelBox"/><text style="text-anchor: middle; dominant-baseline: middle; font-size: 12px;" y="210.7449951171875" x="104.86837768554688" id="rel1" class="er relationshipLabel">station</text><rect height="14" width="25.5" y="224.5" x="257.25" class="er relationshipLabelBox"/><text style="text-anchor: middle; dominant-baseline: middle; font-size: 12px;" y="231.5" x="270" id="rel2" class="er relationshipLabel">class</text><rect height="14" width="27.2265625" y="203.4007110595703" x="404.4065246582031" class="er relationshipLabelBox"/><text style="text-anchor: middle; dominant-baseline: middle; font-size: 12px;" y="210.4007110595703" x="418.0198059082031" id="rel3" class="er relationshipLabel">state</text><rect height="14" width="63.65625" y="220.43270874023438" x="541.35986328125" class="er relationshipLabelBox"/><text style="text-anchor: middle; dominant-baseline: middle; font-size: 12px;" y="227.43270874023438" x="573.18798828125" id="rel4" class="er relationshipLabel">parentState</text></svg>